<svg class="finpro-icon" width="96" height="96" fill="none" xmlns="http://www.w3.org/2000/svg"><circle class="hover-darkgrey" cx="48" cy="48" r="48" fill="#EAECEE"/><path class="hover-yellow" d="M65.302 67.114h-35.84a6.394 6.394 0 01-6.394-6.394V37.38a6.394 6.394 0 016.394-6.393h35.84a6.394 6.394 0 016.394 6.393v23.34c.01 3.531-2.853 6.394-6.394 6.394z" fill="#FDFCFC" stroke="#0A0E11" stroke-width="1.4" stroke-miterlimit="10" stroke-linecap="round" stroke-linejoin="round"/><path d="M55.684 70.186h1.85M28.068 34.06h1.852m1.822 0h1.851m1.823 0h1.851m-4.552 36.126h20.764" stroke="#0A0E11" stroke-width="1.4" stroke-miterlimit="10" stroke-linecap="round" stroke-linejoin="round"/><path d="M36.56 30.987V26.96c0-1.116.802-2.013 1.785-2.013h17.51c.992 0 1.784.897 1.784 2.013v4.027" fill="#FDFCFC"/><path class="hover-yellow" d="M36.56 30.987V26.96c0-1.116.802-2.013 1.785-2.013h17.51c.992 0 1.784.897 1.784 2.013v4.027" stroke="#0A0E11" stroke-width="1.4" stroke-miterlimit="10" stroke-linecap="round" stroke-linejoin="round"/><path d="M28.498 21.311h1.918M31.742 18v1.918m3.244 1.393h-1.918m-1.326 3.312v-1.918m42.77 29.657h1.918m1.326-3.312v1.919M81 52.362h-1.918m-1.326 3.311v-1.918M12 57.067h1.918m1.326-3.311v1.918m3.244 1.393H16.57m-1.326 3.311V58.46" stroke="#0A0E11" stroke-width="1.4" stroke-miterlimit="10" stroke-linecap="round" stroke-linejoin="round"/><path class="hover-yellow" d="M37.83 40.31v2.328h2.968v12.396H37.83v2.223h13.35c6.918-.515 6.918-7.137 2.328-9.323 3.712-1.832 2.52-7.471-2.118-7.5l-13.56-.124z" fill="#FDFCFC" stroke="#0A0E11" stroke-width="1.4" stroke-miterlimit="10" stroke-linecap="round" stroke-linejoin="round"/><path class="hover-yellow" d="M45.168 43.096c1.307.057 2.424-.028 3.53.086 3.55.382 3.436 4.208-.095 4.304-.916.028-2.07.028-3.435-.01v-4.38zm0 6.957c1.593.057 2.958-.029 4.303.086 4.323.381 4.2 4.208-.114 4.303-1.126.029-2.52.029-4.189-.01v-4.38z" fill="#FDFCFC" stroke="#0A0E11" stroke-width="1.4" stroke-miterlimit="10" stroke-linecap="round" stroke-linejoin="round"/><path d="M44.443 37.295v2.977m4.017-2.977v2.977m-4.017 16.995v2.977m4.017-2.977v2.977" stroke="#0A0E11" stroke-width="1.4" stroke-miterlimit="10" stroke-linecap="round" stroke-linejoin="round"/></svg>