<svg class="indiinv-icon" width="96" height="96" fill="none" xmlns="http://www.w3.org/2000/svg"><circle class="hover-darkgrey" cx="48" cy="48" r="48" fill="#EAECEE"/><path class="hover-yellow" d="M33.534 74.3c-3.61-28.21 32.047-30.465 29.564 0H33.534z" fill="#FDFCFC" stroke="#0A0E11" stroke-width="1.4" stroke-miterlimit="10" stroke-linecap="round" stroke-linejoin="round"/><path class="hover-yellow" d="M47.923 52.288a7.16 7.16 0 100-14.318 7.16 7.16 0 000 14.318z" fill="#FDFCFC" stroke="#0A0E11" stroke-width="1.4" stroke-miterlimit="10" stroke-linecap="round" stroke-linejoin="round"/><path d="M56.105 66.397v7.902m-15.351-7.902v7.902" stroke="#0A0E11" stroke-width="1.4" stroke-miterlimit="10" stroke-linecap="round" stroke-linejoin="round"/><path class="hover-yellow" d="M45.185 22.095l1.88-5.857c.227-.716 1.24-.716 1.468 0l1.88 5.857h4.292c.716 0 1.049.892.498 1.355l-3.427 2.902 1.268 5.228c.166.681-.595 1.215-1.18.821l-4.354-2.946-3.863 3.26c-.569.482-1.408-.034-1.25-.76l1.24-5.507-3.723-3.06c-.56-.463-.227-1.372.498-1.363l4.773.07z" fill="#FDFCFC" stroke="#0A0E11" stroke-width="1.4" stroke-miterlimit="10" stroke-linecap="round" stroke-linejoin="round"/><path d="M28.096 36.126l7.141 3.435M23 44.254l7.902.639m-3.951 8.829l7.387-2.876M65.79 35.89l-7.142 3.426m12.239 4.694l-7.903.638m3.951 8.838L59.55 50.6" stroke="#0A0E11" stroke-width="1.4" stroke-miterlimit="10" stroke-linecap="round" stroke-linejoin="round"/></svg>