<svg class="instinv-icon" width="96" height="96" fill="none" xmlns="http://www.w3.org/2000/svg"><circle class="hover-darkgrey" cx="48" cy="48" r="48" fill="#EAECEE"/><path class="hover-yellow" d="M46.272 64.867c.698 2.045 1.543 2.796 2.941 3.15 4.309 1.086 10.182-7.5 13.114-19.163 2.93-11.663 1.825-22.012-2.483-23.087-4.1-1.032-9.462 6.145-12.519 16.974" fill="#FDFCFC"/><path class="hover-yellow" d="M46.272 64.867c.698 2.045 1.543 2.796 2.941 3.15 4.309 1.086 10.182-7.5 13.114-19.163 2.93-11.663 1.825-22.012-2.483-23.087-4.1-1.032-9.462 6.145-12.519 16.974" stroke="#0A0E11" stroke-width="1.4" stroke-miterlimit="10" stroke-linecap="round" stroke-linejoin="round"/><path class="hover-yellow" d="M55.243 69.53c4.308 1.085 10.181-7.5 13.113-19.163 2.942-11.674 1.825-22.012-2.483-23.087l-6.02-1.512c10.36 2.608-.281 44.858-10.64 42.26l6.03 1.502zm-18.864-.263c4.408-.55 6.773-10.674 5.282-22.611-1.49-11.938-6.272-21.169-10.68-20.618-4.408.55-6.773 10.673-5.282 22.61 1.49 11.938 6.272 21.169 10.68 20.619z" fill="#FDFCFC" stroke="#0A0E11" stroke-width="1.4" stroke-miterlimit="10" stroke-linecap="round" stroke-linejoin="round"/><path class="hover-yellow" d="M42.538 68.487c4.402-.553 6.77-10.672 5.279-22.617-1.492-11.945-6.27-21.177-10.683-20.624l-6.165.772c10.599-1.325 15.992 41.916 5.404 43.24l6.165-.771z" fill="#FDFCFC" stroke="#0A0E11" stroke-width="1.4" stroke-miterlimit="10" stroke-linecap="round" stroke-linejoin="round"/></svg>