<svg class="finpro-icon" width="96" height="96" viewBox="0 0 96 96" fill="none" xmlns="http://www.w3.org/2000/svg">
<circle class="hover-darkgrey" cx="48" cy="48" r="48" fill="#EAECEE"/>
<path class="hover-yellow" d="M65.3024 67.1138H29.4617C25.931 67.1138 23.0684 64.2511 23.0684 60.7205V37.3801C23.0684 33.8495 25.931 30.9868 29.4617 30.9868H65.3024C68.833 30.9868 71.6957 33.8495 71.6957 37.3801V60.7205C71.7052 64.2511 68.8425 67.1138 65.3024 67.1138Z" fill="#FDFCFC" stroke="#0A0E11" stroke-width="1.4" stroke-miterlimit="10" stroke-linecap="round" stroke-linejoin="round"/>
<path d="M55.6836 70.1865H57.5348" stroke="#0A0E11" stroke-width="1.4" stroke-miterlimit="10" stroke-linecap="round" stroke-linejoin="round"/>
<path d="M28.0684 34.0591H29.9196" stroke="#0A0E11" stroke-width="1.4" stroke-miterlimit="10" stroke-linecap="round" stroke-linejoin="round"/>
<path d="M31.7422 34.0591H33.5934" stroke="#0A0E11" stroke-width="1.4" stroke-miterlimit="10" stroke-linecap="round" stroke-linejoin="round"/>
<path d="M35.416 34.0591H37.2672" stroke="#0A0E11" stroke-width="1.4" stroke-miterlimit="10" stroke-linecap="round" stroke-linejoin="round"/>
<path d="M32.7148 70.1865H53.4788" stroke="#0A0E11" stroke-width="1.4" stroke-miterlimit="10" stroke-linecap="round" stroke-linejoin="round"/>
<path d="M36.5605 30.987V26.9602C36.5605 25.8437 37.3621 24.9468 38.3449 24.9468H55.855C56.8474 24.9468 57.6394 25.8437 57.6394 26.9602V30.987" fill="#FDFCFC"/>
<path class="hover-yellow" d="M36.5605 30.987V26.9602C36.5605 25.8437 37.3621 24.9468 38.3449 24.9468H55.855C56.8474 24.9468 57.6394 25.8437 57.6394 26.9602V30.987" stroke="#0A0E11" stroke-width="1.4" stroke-miterlimit="10" stroke-linecap="round" stroke-linejoin="round"/>
<path d="M28.498 21.3115H30.416" stroke="#0A0E11" stroke-width="1.4" stroke-miterlimit="10" stroke-linecap="round" stroke-linejoin="round"/>
<path d="M31.7422 18V19.918" stroke="#0A0E11" stroke-width="1.4" stroke-miterlimit="10" stroke-linecap="round" stroke-linejoin="round"/>
<path d="M34.9864 21.3115H33.0684" stroke="#0A0E11" stroke-width="1.4" stroke-miterlimit="10" stroke-linecap="round" stroke-linejoin="round"/>
<path d="M31.7422 24.6226V22.7046" stroke="#0A0E11" stroke-width="1.4" stroke-miterlimit="10" stroke-linecap="round" stroke-linejoin="round"/>
<path d="M74.5117 52.3618H76.4297" stroke="#0A0E11" stroke-width="1.4" stroke-miterlimit="10" stroke-linecap="round" stroke-linejoin="round"/>
<path d="M77.7559 49.0508V50.9688" stroke="#0A0E11" stroke-width="1.4" stroke-miterlimit="10" stroke-linecap="round" stroke-linejoin="round"/>
<path d="M81 52.3618H79.082" stroke="#0A0E11" stroke-width="1.4" stroke-miterlimit="10" stroke-linecap="round" stroke-linejoin="round"/>
<path d="M77.7559 55.6729V53.7549" stroke="#0A0E11" stroke-width="1.4" stroke-miterlimit="10" stroke-linecap="round" stroke-linejoin="round"/>
<path d="M12 57.0674H13.918" stroke="#0A0E11" stroke-width="1.4" stroke-miterlimit="10" stroke-linecap="round" stroke-linejoin="round"/>
<path d="M15.2441 53.7559V55.6739" stroke="#0A0E11" stroke-width="1.4" stroke-miterlimit="10" stroke-linecap="round" stroke-linejoin="round"/>
<path d="M18.4883 57.0674H16.5703" stroke="#0A0E11" stroke-width="1.4" stroke-miterlimit="10" stroke-linecap="round" stroke-linejoin="round"/>
<path d="M15.2441 60.3784V58.4604" stroke="#0A0E11" stroke-width="1.4" stroke-miterlimit="10" stroke-linecap="round" stroke-linejoin="round"/>
<path class="hover-yellow" d="M37.8301 40.3101V42.6384H40.7977V55.0337H37.8301V57.2571H51.1797C58.0978 56.7418 58.0978 50.1195 53.508 47.9343C57.2199 46.1022 56.0271 40.4627 51.3896 40.4341L37.8301 40.3101Z" fill="#FDFCFC" stroke="#0A0E11" stroke-width="1.4" stroke-miterlimit="10" stroke-linecap="round" stroke-linejoin="round"/>
<path class="hover-yellow" d="M45.168 43.0962C46.4753 43.1534 47.5917 43.0676 48.6986 43.1821C52.2483 43.5638 52.1338 47.3902 48.6032 47.4856C47.6871 47.5143 46.5325 47.5142 45.168 47.4761V43.0962Z" fill="#FDFCFC" stroke="#0A0E11" stroke-width="1.4" stroke-miterlimit="10" stroke-linecap="round" stroke-linejoin="round"/>
<path class="hover-yellow" d="M45.168 50.0527C46.7615 50.11 48.1261 50.0241 49.4715 50.1386C53.7942 50.5203 53.6701 54.3467 49.357 54.4422C48.231 54.4708 46.8379 54.4708 45.168 54.4326V50.0527Z" fill="#FDFCFC" stroke="#0A0E11" stroke-width="1.4" stroke-miterlimit="10" stroke-linecap="round" stroke-linejoin="round"/>
<path d="M44.4434 37.2949V40.2721" stroke="#0A0E11" stroke-width="1.4" stroke-miterlimit="10" stroke-linecap="round" stroke-linejoin="round"/>
<path d="M48.4609 37.2949V40.2721" stroke="#0A0E11" stroke-width="1.4" stroke-miterlimit="10" stroke-linecap="round" stroke-linejoin="round"/>
<path d="M44.4434 57.2671V60.2443" stroke="#0A0E11" stroke-width="1.4" stroke-miterlimit="10" stroke-linecap="round" stroke-linejoin="round"/>
<path d="M48.4609 57.2671V60.2443" stroke="#0A0E11" stroke-width="1.4" stroke-miterlimit="10" stroke-linecap="round" stroke-linejoin="round"/>
</svg>
