<svg class="indiinv-icon" width="96" height="96" viewBox="0 0 96 96" fill="none" xmlns="http://www.w3.org/2000/svg">
<circle class="hover-darkgrey" cx="48" cy="48" r="48" fill="#EAECEE"/>
<path class="hover-yellow" d="M33.5344 74.2995C29.9241 46.0907 65.5806 43.8354 63.098 74.2995H33.5344Z" fill="#FDFCFC" stroke="#0A0E11" stroke-width="1.4" stroke-miterlimit="10" stroke-linecap="round" stroke-linejoin="round"/>
<path class="hover-yellow" d="M47.9229 52.2882C51.8769 52.2882 55.0822 49.0829 55.0822 45.129C55.0822 41.175 51.8769 37.9697 47.9229 37.9697C43.969 37.9697 40.7637 41.175 40.7637 45.129C40.7637 49.0829 43.969 52.2882 47.9229 52.2882Z" fill="#FDFCFC" stroke="#0A0E11" stroke-width="1.4" stroke-miterlimit="10" stroke-linecap="round" stroke-linejoin="round"/>
<path d="M56.1055 66.3965V74.2988" stroke="#0A0E11" stroke-width="1.4" stroke-miterlimit="10" stroke-linecap="round" stroke-linejoin="round"/>
<path d="M40.7539 66.3965V74.2988" stroke="#0A0E11" stroke-width="1.4" stroke-miterlimit="10" stroke-linecap="round" stroke-linejoin="round"/>
<path class="hover-yellow" d="M45.185 22.0951L47.0645 16.2383C47.2917 15.5215 48.3057 15.5215 48.533 16.2383L50.4124 22.0951H54.7045C55.4213 22.0951 55.7535 22.9867 55.2028 23.45L51.7761 26.3522L53.0436 31.5796C53.2097 32.2614 52.4492 32.7946 51.8635 32.4013L47.5103 29.4554L43.6465 32.7159C43.0783 33.1967 42.2392 32.681 42.3965 31.9554L43.6378 26.4483L39.9139 23.3888C39.3545 22.9255 39.6866 22.0164 40.4122 22.0251L45.185 22.0951Z" fill="#FDFCFC" stroke="#0A0E11" stroke-width="1.4" stroke-miterlimit="10" stroke-linecap="round" stroke-linejoin="round"/>
<path d="M28.0957 36.1255L35.2375 39.5609" stroke="#0A0E11" stroke-width="1.4" stroke-miterlimit="10" stroke-linecap="round" stroke-linejoin="round"/>
<path d="M23 44.2544L30.9023 44.8925" stroke="#0A0E11" stroke-width="1.4" stroke-miterlimit="10" stroke-linecap="round" stroke-linejoin="round"/>
<path d="M26.9512 53.7216L34.3377 50.8457" stroke="#0A0E11" stroke-width="1.4" stroke-miterlimit="10" stroke-linecap="round" stroke-linejoin="round"/>
<path d="M65.7902 35.8892L58.6484 39.3158" stroke="#0A0E11" stroke-width="1.4" stroke-miterlimit="10" stroke-linecap="round" stroke-linejoin="round"/>
<path d="M70.8867 44.0103L62.9844 44.6484" stroke="#0A0E11" stroke-width="1.4" stroke-miterlimit="10" stroke-linecap="round" stroke-linejoin="round"/>
<path d="M66.9354 53.4858L59.5488 50.6011" stroke="#0A0E11" stroke-width="1.4" stroke-miterlimit="10" stroke-linecap="round" stroke-linejoin="round"/>
</svg>
