<svg class="instinv-icon" width="96" height="96" viewBox="0 0 96 96" fill="none" xmlns="http://www.w3.org/2000/svg">
<circle class="hover-darkgrey" cx="48" cy="48" r="48" fill="#EAECEE"/>
<path class="hover-yellow" d="M46.2715 64.8671C46.9704 66.9118 47.8154 67.6629 49.2133 68.0176C53.5218 69.1025 59.3951 60.5169 62.3265 48.8538C65.2579 37.1907 64.1521 26.8421 59.8436 25.7675C55.7438 24.7348 50.3817 31.9121 47.3251 42.7406" fill="#FDFCFC"/>
<path class="hover-yellow" d="M46.2715 64.8671C46.9704 66.9118 47.8154 67.6629 49.2133 68.0176C53.5218 69.1025 59.3951 60.5169 62.3265 48.8538C65.2579 37.1907 64.1521 26.8421 59.8436 25.7675C55.7438 24.7348 50.3817 31.9121 47.3251 42.7406" stroke="#0A0E11" stroke-width="1.4" stroke-miterlimit="10" stroke-linecap="round" stroke-linejoin="round"/>
<path class="hover-yellow" d="M55.2426 69.5302C59.5511 70.6152 65.4244 62.0296 68.3558 50.3665C71.2977 38.6929 70.1814 28.3547 65.873 27.2802L59.8536 25.7676C70.2127 28.3756 59.572 70.6256 49.2129 68.028L55.2426 69.5302Z" fill="#FDFCFC" stroke="#0A0E11" stroke-width="1.4" stroke-miterlimit="10" stroke-linecap="round" stroke-linejoin="round"/>
<path class="hover-yellow" d="M36.3788 69.2666C40.7867 68.7163 43.1518 58.593 41.6612 46.6556C40.1707 34.7182 35.3891 25.4873 30.9812 26.0376C26.5733 26.588 24.2083 36.7113 25.6988 48.6487C27.1893 60.586 31.9709 69.817 36.3788 69.2666Z" fill="#FDFCFC" stroke="#0A0E11" stroke-width="1.4" stroke-miterlimit="10" stroke-linecap="round" stroke-linejoin="round"/>
<path class="hover-yellow" d="M42.5379 68.4868C46.9403 67.9339 49.3084 57.8148 47.8166 45.87C46.3248 33.9253 41.5469 24.6929 37.1341 25.2458L30.9688 26.0177C41.5678 24.6929 46.9612 67.9339 36.3726 69.2588L42.5379 68.4868Z" fill="#FDFCFC" stroke="#0A0E11" stroke-width="1.4" stroke-miterlimit="10" stroke-linecap="round" stroke-linejoin="round"/>
</svg>
